<?xml version="1.0" encoding="UTF-8"?> <svg xmlns="http://www.w3.org/2000/svg" width="800" height="450" viewBox="0 0 800 450" fill="none"><rect width="800" height="450" transform="translate(0 0.000976562)" fill="#F4F5F6"></rect><circle cx="218.286" cy="225.001" r="70.8571" fill="#223340"></circle><path d="M211.643 278.144L169.572 254.959V207.287L211.643 230.472V278.144Z" fill="#00C693"></path><path d="M224.929 278.144L267 254.959V207.287L224.929 230.472V278.144Z" fill="#EEF0F1"></path><path d="M218.287 171.858L178.429 195.807L218.287 218.358L258.143 195.807L218.287 171.858Z" fill="#EEF0F1"></path><circle cx="400" cy="225.001" r="70.8571" fill="#223340"></circle><path d="M393.358 278.144L351.286 254.959V207.287L393.358 230.472V278.144Z" fill="#00C693"></path><path d="M406.643 278.144L448.715 254.959V207.287L406.643 230.472V278.144Z" fill="#00C693"></path><path d="M400.001 171.858L360.143 195.807L400.001 218.358L439.857 195.807L400.001 171.858Z" fill="#EEF0F1"></path><circle cx="581.714" cy="225.001" r="70.8571" fill="#223340"></circle><path d="M575.071 278.144L533 254.959V207.287L575.071 230.472V278.144Z" fill="#00C693"></path><path d="M588.357 278.144L630.429 254.959V207.287L588.357 230.472V278.144Z" fill="#00C693"></path><path d="M581.715 171.858L541.857 195.807L581.715 218.358L621.571 195.807L581.715 171.858Z" fill="#00C693"></path></svg> 