<svg xmlns="http://www.w3.org/2000/svg" width="100" height="17" viewBox="0 0 100 17" fill="none">
<g clip-path="url(#clip0_508_299)">
<mask id="mask0_508_299" style="mask-type:luminance" maskUnits="userSpaceOnUse" x="0" y="0" width="100" height="17">
<path d="M100 0H0V17H100V0Z" fill="white"/>
</mask>
<g mask="url(#mask0_508_299)">
<path d="M25.6003 12.6637C25.6003 13.8593 25.0978 14.4255 24.0931 14.4255C23.0883 14.4255 22.5859 13.8593 22.5859 12.6637V0.330611H19.7599V12.6008C19.7599 15.4323 21.3927 16.9424 24.0931 16.9424C26.7934 16.9424 28.4262 15.3693 28.4262 12.6008V0.330611H25.6003V12.6637ZM6.63497 8.07026C8.01659 7.50394 8.58176 6.05666 8.58176 4.60947C8.58176 1.84078 7.26299 0.267762 4.2486 0.267762H0.0410156V16.6277H4.49989C7.70271 16.6277 8.8959 14.6141 8.8959 11.9084C8.8959 9.83195 8.0167 8.69926 6.6351 8.07L6.63497 8.07026ZM2.86698 2.59587H3.93459C5.19059 2.59587 5.7558 3.35095 5.7558 4.9241C5.7558 6.30844 4.9394 7.00055 3.87174 7.00055H2.80413L2.86698 2.59587ZM3.99738 14.3627H2.86698V9.32877H3.74618C5.44181 9.32877 6.06983 10.1468 6.06983 11.8457C6.06983 13.4817 5.50463 14.3626 3.99747 14.3626L3.99738 14.3627ZM33.7646 9.4546H37.4071V7.00055H33.7646V2.78467H38.4747V0.330611H30.9387V16.6905H38.7887V14.2365H33.7646V9.4546ZM13.9832 0.330611H11.22V16.6905H18.4419V14.2365H14.0459V0.329967L13.9832 0.330611ZM85.5127 16.6905H88.3388V0.330611H85.5127V16.6905ZM78.793 0.078186C75.8414 0.078186 74.4599 1.96597 74.4599 4.29407V12.7259C74.4599 15.0542 75.8415 16.9418 78.793 16.9418C78.793 16.9418 80.3631 16.8788 81.5563 15.9351L83.0635 16.9418V12.663V8.44709H78.542V10.6494H80.5516V12.663V12.7259C80.5516 14.5507 78.9815 14.4878 78.9815 14.4878H78.7932C77.6627 14.4878 77.286 13.9213 77.286 12.6629V4.35698C77.286 3.16143 77.6627 2.53218 78.7932 2.53218C79.9235 2.53218 80.3004 3.0985 80.3004 4.35698V5.61546H83.1263V4.29409C83.1263 1.96586 81.7446 0.078186 78.793 0.078186ZM50.784 0.078186C47.8324 0.078186 46.5136 1.96597 46.5136 4.29407V12.7259C46.5136 15.0542 47.8952 16.9418 50.8468 16.9418C53.7983 16.9418 55.1799 15.054 55.1799 12.7259V4.29407C55.1172 1.96584 53.7356 0.078186 50.7839 0.078186H50.784ZM52.2912 12.663C52.2912 13.8585 51.9145 14.4878 50.784 14.4878C49.6537 14.4878 49.2769 13.9215 49.2769 12.663V4.35704C49.2769 3.16149 49.6537 2.53225 50.784 2.53225C51.9145 2.53225 52.2912 3.09857 52.2912 4.35704V12.663ZM97.3812 0.329838V10.0201L93.5505 0.329838H91.0384V16.6898H93.5505V6.99952L97.3812 16.6898H99.8932V0.329838H97.3812ZM69.0586 16.6898H71.8846V0.329838H69.0586V16.6898ZM66.2328 5.11174C66.2328 1.58797 64.6626 0.266603 61.4598 0.266603H57.5033V16.6265H60.3293V9.95662C60.8317 9.95662 61.3969 9.95662 61.7736 9.89369L63.7833 16.6894H66.6092L64.2229 9.26443C65.2277 8.82397 66.2325 7.75426 66.2325 5.11141L66.2328 5.11174ZM61.397 7.62864H60.3923V2.59471H61.397C62.9042 2.59471 63.4694 3.16103 63.4694 5.11161C63.4694 7.06224 62.9042 7.62864 61.397 7.62864Z" fill="#0000FF"/>
</g>
</g>
<defs>
<clipPath id="clip0_508_299">
<rect width="100" height="17" fill="white"/>
</clipPath>
</defs>
</svg>
