<svg xmlns="http://www.w3.org/2000/svg" width="100" height="31" viewBox="0 0 100 31" fill="none">
<g clip-path="url(#clip0_508_297)">
<path d="M52.7024 7.78879C52.7024 8.90591 51.7964 9.80581 50.6718 9.80581C49.5471 9.80581 48.6412 8.90591 48.6412 7.78879C48.6412 6.67167 49.5159 5.77177 50.6718 5.77177C51.8277 5.8028 52.7024 6.7027 52.7024 7.78879ZM44.33 11.8539C44.33 12.04 44.33 12.3503 44.33 12.3503C44.33 12.3503 43.3616 11.1091 41.2997 11.1091C37.8945 11.1091 35.2391 13.6847 35.2391 17.2533C35.2391 20.7908 37.8633 23.3974 41.2997 23.3974C43.3928 23.3974 44.33 22.1251 44.33 22.1251V22.6527C44.33 22.9009 44.5175 23.0871 44.7674 23.0871H47.2978V11.4194C47.2978 11.4194 44.9861 11.4194 44.7674 11.4194C44.5175 11.4194 44.33 11.6366 44.33 11.8539ZM44.33 19.3323C43.8614 20.015 42.9242 20.6046 41.7996 20.6046C39.8002 20.6046 38.2694 19.3634 38.2694 17.2533C38.2694 15.1431 39.8002 13.9019 41.7996 13.9019C42.893 13.9019 43.8927 14.5225 44.33 15.1742V19.3323ZM49.1722 11.4194H52.1713V23.0871H49.1722V11.4194ZM93.9707 11.1091C91.9088 11.1091 90.9404 12.3503 90.9404 12.3503V5.8028H87.9413V23.0871C87.9413 23.0871 90.2531 23.0871 90.4718 23.0871C90.7217 23.0871 90.9092 22.8699 90.9092 22.6527V22.1251C90.9092 22.1251 91.8776 23.3974 93.9395 23.3974C97.3447 23.3974 100 20.7908 100 17.2533C100 13.7157 97.3446 11.1091 93.9707 11.1091ZM93.4709 20.5736C92.315 20.5736 91.409 19.984 90.9404 19.3013V15.1431C91.409 14.5225 92.4087 13.8709 93.4709 13.8709C95.4702 13.8709 97.001 15.1121 97.001 17.2222C97.001 19.3323 95.4702 20.5736 93.4709 20.5736ZM86.3793 16.1672V23.1181H83.3803V16.5085C83.3803 14.5846 82.7555 13.8088 81.0685 13.8088C80.1625 13.8088 79.2253 14.2743 78.6318 14.957V23.0871H75.6327V11.4194H78.007C78.2569 11.4194 78.4443 11.6366 78.4443 11.8539V12.3503C79.319 11.4504 80.4749 11.1091 81.6308 11.1091C82.9429 11.1091 84.0363 11.4815 84.911 12.2262C85.9732 13.0951 86.3793 14.2122 86.3793 16.1672ZM68.3537 11.1091C66.2919 11.1091 65.3234 12.3503 65.3234 12.3503V5.8028H62.3244V23.0871C62.3244 23.0871 64.6362 23.0871 64.8548 23.0871C65.1048 23.0871 65.2922 22.8699 65.2922 22.6527V22.1251C65.2922 22.1251 66.2606 23.3974 68.3225 23.3974C71.7277 23.3974 74.3831 20.7908 74.3831 17.2533C74.4143 13.7157 71.7589 11.1091 68.3537 11.1091ZM67.8539 20.5736C66.698 20.5736 65.792 19.984 65.3234 19.3013V15.1431C65.792 14.5225 66.7917 13.8709 67.8539 13.8709C69.8533 13.8709 71.384 15.1121 71.384 17.2222C71.384 19.3323 69.8533 20.5736 67.8539 20.5736ZM59.7314 11.1091C60.6374 11.1091 61.106 11.2643 61.106 11.2643V14.026C61.106 14.026 58.6068 13.1882 57.0448 14.957V23.1181H54.0457V11.4194C54.0457 11.4194 56.3575 11.4194 56.5762 11.4194C56.8261 11.4194 57.0135 11.6366 57.0135 11.8539V12.3503C57.5759 11.6987 58.7942 11.1091 59.7314 11.1091ZM28.585 22.032C28.4287 21.6597 28.2725 21.2563 28.1163 20.9149C27.8664 20.3564 27.6165 19.8288 27.3978 19.3323L27.3666 19.3013C25.211 14.6466 22.8992 9.92993 20.4625 5.27528L20.3688 5.08909C20.1189 4.62362 19.8689 4.12713 19.619 3.63063C19.3066 3.07207 18.9942 2.48248 18.4944 1.92392C17.4947 0.682683 16.0576 0 14.5269 0C12.9648 0 11.559 0.682683 10.5281 1.86186C10.0595 2.42042 9.71587 3.01001 9.40346 3.56857C9.15354 4.06506 8.90362 4.56156 8.6537 5.02703L8.55998 5.21321C6.15448 9.86787 3.81147 14.5846 1.65589 19.2392L1.62465 19.3013C1.40597 19.7978 1.15605 20.3253 0.906128 20.8839C0.749927 21.2252 0.593726 21.5976 0.437525 22.001C0.0314022 23.1491 -0.0935587 24.2352 0.0626424 25.3524C0.406285 27.6797 1.96829 29.6346 4.12387 30.5035C4.93611 30.8448 5.7796 31 6.65433 31C6.90425 31 7.21665 30.969 7.46657 30.9379C8.4975 30.8138 9.55967 30.4725 10.5906 29.8829C11.8714 29.1692 13.0898 28.1451 14.4644 26.6557C15.8389 28.1451 17.0886 29.1692 18.3382 29.8829C19.3691 30.4725 20.4313 30.8138 21.4622 30.9379C21.7121 30.969 22.0245 31 22.2744 31C23.1492 31 24.0239 30.8448 24.8049 30.5035C26.9917 29.6346 28.5225 27.6486 28.8661 25.3524C29.116 24.2663 28.9911 23.1802 28.585 22.032ZM14.4956 23.6456C12.8086 21.5355 11.7152 19.5495 11.3404 17.8739C11.1842 17.1602 11.1529 16.5395 11.2466 15.981C11.3091 15.4845 11.4966 15.05 11.7465 14.6777C12.34 13.8398 13.3397 13.3123 14.4956 13.3123C15.6515 13.3123 16.6824 13.8088 17.2448 14.6777C17.4947 15.05 17.6821 15.4845 17.7446 15.981C17.8383 16.5395 17.8071 17.1912 17.6509 17.8739C17.276 19.5185 16.1826 21.5045 14.4956 23.6456ZM26.9605 25.1041C26.7418 26.7177 25.6484 28.1141 24.1176 28.7347C23.3678 29.045 22.5556 29.1381 21.7433 29.045C20.9623 28.952 20.1813 28.7037 19.3691 28.2382C18.2444 27.6176 17.1198 26.6557 15.8077 25.2282C17.8696 22.7147 19.1192 20.4184 19.5878 18.3704C19.8065 17.4084 19.8377 16.5395 19.744 15.7327C19.619 14.957 19.3379 14.2432 18.9005 13.6226C17.932 12.2262 16.3076 11.4194 14.4956 11.4194C12.6837 11.4194 11.0592 12.2573 10.0907 13.6226C9.65339 14.2432 9.37222 14.957 9.24726 15.7327C9.1223 16.5395 9.15354 17.4394 9.40346 18.3704C9.87207 20.4184 11.1529 22.7457 13.1835 25.2593C11.9027 26.6867 10.7468 27.6486 9.62215 28.2693C8.8099 28.7347 8.0289 28.983 7.24789 29.0761C6.4044 29.1692 5.59216 29.045 4.87363 28.7658C3.34286 28.1451 2.24946 26.7487 2.03078 25.1351C1.93705 24.3594 1.99954 23.5836 2.31194 22.7147C2.40566 22.4044 2.56186 22.0941 2.71806 21.7217C2.93674 21.2252 3.18666 20.6977 3.43658 20.1702L3.46782 20.1081C5.6234 15.4845 7.93517 10.7678 10.3407 6.17517L10.4344 5.98899C10.6843 5.52352 10.9342 5.02703 11.1842 4.56156C11.4341 4.06506 11.7152 3.5996 12.0589 3.1962C12.7149 2.45145 13.5897 2.04805 14.5581 2.04805C15.5265 2.04805 16.4013 2.45145 17.0573 3.1962C17.401 3.5996 17.6821 4.06506 17.932 4.56156C18.182 5.02703 18.4319 5.52352 18.6818 5.98899L18.7755 6.17517C21.1498 10.7988 23.4616 15.5155 25.6171 20.1391V20.1702C25.8671 20.6667 26.0857 21.2252 26.3357 21.7217C26.4919 22.0941 26.6481 22.4044 26.7418 22.7147C26.9917 23.5215 27.0854 24.2973 26.9605 25.1041Z" fill="#FF5A5F"/>
</g>
<defs>
<clipPath id="clip0_508_297">
<rect width="100" height="31" fill="white"/>
</clipPath>
</defs>
</svg>
