<svg width="240" height="96" viewBox="0 0 240 96" fill="none" xmlns="http://www.w3.org/2000/svg">
<g clip-path="url(#clip0_1079_5897)">
<rect width="240" height="96" fill="#FF3621"/>
<g filter="url(#filter0_ii_1079_5897)">
<path d="M154.912 206.441C155.894 206.397 156.385 206.375 156.819 206.212C157.202 206.069 157.551 205.846 157.843 205.558C158.172 205.234 158.399 204.797 158.852 203.924L239.085 49.3509C239.538 48.4782 239.764 48.0418 239.84 47.5852C239.907 47.1813 239.889 46.7678 239.786 46.3714C239.669 45.9235 239.405 45.5092 238.875 44.6805L145.127 -102.09C144.598 -102.919 144.333 -103.333 143.976 -103.627C143.66 -103.887 143.292 -104.078 142.897 -104.187C142.451 -104.31 141.96 -104.288 140.978 -104.244L-33.0033 -96.441C-33.9857 -96.3969 -34.4768 -96.3749 -34.9101 -96.2124C-35.2935 -96.0685 -35.6423 -95.8456 -35.9341 -95.5583C-36.2638 -95.2335 -36.4903 -94.7971 -36.9433 -93.9244L-117.176 60.6492C-117.629 61.5219 -117.856 61.9583 -117.932 62.4148C-117.999 62.8188 -117.98 63.2323 -117.877 63.6287C-117.761 64.0766 -117.496 64.4909 -116.967 65.3196L-23.2187 212.09C-22.6894 212.919 -22.4248 213.333 -22.0673 213.627C-21.751 213.887 -21.3836 214.078 -20.9889 214.187C-20.5428 214.31 -20.0516 214.288 -19.0693 214.244L154.912 206.441Z" fill="#BD2B26"/>
</g>
<g filter="url(#filter1_ii_1079_5897)">
<path d="M137.875 180.123C138.938 180.076 139.469 180.052 139.938 179.876C140.352 179.72 140.73 179.479 141.045 179.168C141.402 178.817 141.647 178.345 142.137 177.401L207.774 50.9466C208.264 50.0026 208.509 49.5305 208.592 49.0367C208.664 48.5998 208.644 48.1525 208.533 47.7238C208.407 47.2393 208.12 46.7912 207.548 45.8948L130.854 -74.1762C130.281 -75.0726 129.995 -75.5208 129.608 -75.8387C129.266 -76.12 128.869 -76.3263 128.442 -76.4442C127.959 -76.5774 127.428 -76.5535 126.366 -76.5059L-15.966 -70.1224C-17.0285 -70.0748 -17.5598 -70.0509 -18.0284 -69.8751C-18.4431 -69.7195 -18.8205 -69.4785 -19.136 -69.1676C-19.4926 -68.8163 -19.7376 -68.3443 -20.2276 -67.4003L-85.8652 59.0542C-86.3552 59.9982 -86.6002 60.4702 -86.6822 60.964C-86.7548 61.4009 -86.7347 61.8482 -86.6233 62.2769C-86.4974 62.7614 -86.2111 63.2096 -85.6386 64.106L-8.94456 184.177C-8.37202 185.073 -8.08574 185.522 -7.69911 185.839C-7.35701 186.121 -6.9596 186.327 -6.53265 186.445C-6.05012 186.578 -5.51884 186.554 -4.4563 186.507L137.875 180.123Z" fill="#801C17"/>
</g>
<g filter="url(#filter2_ii_1079_5897)">
<path d="M121.295 155.134C122.576 155.076 123.217 155.047 123.782 154.835C124.282 154.648 124.737 154.357 125.117 153.982C125.547 153.559 125.843 152.99 126.434 151.851L177.842 52.8092C178.433 51.6709 178.729 51.1017 178.828 50.5063C178.915 49.9795 178.891 49.4401 178.757 48.9232C178.605 48.339 178.26 47.7986 177.569 46.7178L117.501 -47.3246C116.81 -48.4054 116.465 -48.9459 115.999 -49.3292C115.586 -49.6685 115.107 -49.9172 114.592 -50.0593C114.011 -50.2199 113.37 -50.1912 112.089 -50.1337L0.611377 -45.134C-0.669824 -45.0766 -1.31042 -45.0478 -1.87554 -44.8358C-2.37555 -44.6481 -2.83055 -44.3575 -3.21102 -43.9827C-3.64104 -43.5592 -3.93646 -42.99 -4.52729 -41.8517L-55.9361 57.1904C-56.527 58.3287 -56.8224 58.8978 -56.9213 59.4932C-57.0088 60.0201 -56.9846 60.5594 -56.8503 61.0763C-56.6985 61.6605 -56.3533 62.2009 -55.6629 63.2817L4.40562 157.324C5.09599 158.405 5.44117 158.945 5.90737 159.329C6.31986 159.668 6.79905 159.917 7.31386 160.059C7.89568 160.219 8.53629 160.191 9.81749 160.133L121.295 155.134Z" fill="#550B07"/>
</g>
<path d="M132.677 58.7362C131.973 58.3734 131.191 58.0524 130.352 57.7824L130.344 57.7798C129.472 57.5117 128.846 57.3104 128.315 57.1273C127.787 56.9456 127.377 56.7299 127.093 56.4834C126.963 56.3723 126.789 56.1729 126.789 55.7323C126.789 55.3328 126.917 55.0641 127.2 54.8647C127.546 54.6248 127.988 54.5104 128.512 54.5222H128.526C129.142 54.5222 129.596 54.6712 129.914 54.9778C130.228 55.2818 130.387 55.6139 130.4 55.9944L130.404 56.1315V56.5858H134.845L134.824 56.0953L134.819 55.9519C134.78 54.9327 134.483 54.0332 133.936 53.2761C133.391 52.5322 132.643 51.9504 131.711 51.547C130.796 51.1508 129.74 50.9501 128.571 50.9501C127.402 50.9501 126.371 51.1469 125.47 51.5346C124.54 51.9281 123.795 52.5008 123.252 53.2382C122.696 53.9946 122.424 54.9014 122.442 55.9336C122.444 57.1659 122.842 58.1733 123.625 58.9245C124.354 59.6305 125.41 60.2078 126.765 60.6399L127.473 60.8639C127.996 61.0291 128.497 61.1874 128.976 61.3407C129.594 61.5388 130.086 61.7885 130.438 62.084C130.776 62.3677 130.847 62.7848 130.847 63.0849C130.847 63.4948 130.702 63.7883 130.376 64.0367C130.013 64.3133 129.491 64.4532 128.827 64.4532C128.047 64.4532 127.466 64.2656 127.051 63.8792C126.641 63.4981 126.431 63.0463 126.409 62.4972L126.398 62.2344L126.393 61.9178L122.033 61.9178L122.043 62.4291H122.044L122.045 62.5279C122.058 63.6831 122.375 64.6892 122.987 65.5175C123.582 66.3235 124.404 66.9485 125.428 67.3741C126.425 67.7886 127.578 67.9991 128.855 67.9991H129.451V67.9729C130.542 67.9141 131.495 67.6912 132.289 67.3081C133.253 66.8426 133.993 66.2144 134.485 65.441C134.985 64.6571 135.239 63.7968 135.239 62.8849C135.239 61.8552 134.995 60.9903 134.516 60.3163C134.052 59.658 133.433 59.1271 132.678 58.7375L132.677 58.7362Z" fill="white"/>
<path d="M147.25 61.2857C147.25 62.3133 147.005 63.0403 146.499 63.5097C145.986 63.9902 145.28 64.2242 144.339 64.2242C143.397 64.2242 142.669 63.9843 142.167 63.5097C141.676 63.0495 141.428 62.3016 141.428 61.2857C141.428 57.9279 141.423 54.5699 141.423 51.2122H137.224C137.224 54.5628 137.223 57.9134 137.223 61.2641C137.223 62.7559 137.545 64.0216 138.179 65.0251C138.814 66.0292 139.682 66.7856 140.756 67.2726C141.798 67.7512 142.979 67.9944 144.265 67.9957H144.276C145.548 67.9944 146.738 67.7518 147.813 67.2752C148.913 66.7849 149.803 66.0312 150.458 65.0336C151.12 64.0275 151.455 62.7592 151.455 61.2634C151.455 57.9131 151.448 54.5622 151.448 51.2122C150.049 51.2122 148.648 51.2122 147.248 51.2122L147.25 61.2857Z" fill="white"/>
<path d="M189.803 51.2122C188.172 54.2314 186.534 57.2468 184.941 60.2858C183.336 57.2629 181.689 54.2321 180.079 51.2122L175.55 51.2122C175.55 56.7145 175.55 62.2336 175.55 67.7433H179.752V58.8833C180.953 61.1147 182.192 63.3287 183.407 65.5526H186.473C187.682 63.3252 188.907 61.1064 190.123 58.8833L190.121 67.7433H194.331C194.333 62.2329 194.331 56.7225 194.331 51.2122H189.803Z" fill="white"/>
<path d="M168.275 51.2122C166.644 54.2314 165.006 57.2468 163.413 60.2858C161.809 57.2629 160.162 54.2321 158.552 51.2122L154.022 51.2122C154.022 56.7145 154.022 62.2336 154.022 67.7433H158.224V58.8833C159.425 61.1147 160.665 63.3287 161.88 65.5526H164.946C166.154 63.3252 167.379 61.1064 168.595 58.8833L168.593 67.7433H172.804C172.805 62.2329 172.803 56.7225 172.803 51.2122H168.275Z" fill="white"/>
<path d="M200.89 51.2122H196.685C196.685 56.7225 196.685 62.2329 196.685 67.7432H200.89V51.2122Z" fill="white"/>
<path d="M207.968 67.7432V54.6538H203.135V51.2117H217.02V54.6538H212.151V67.7432H207.968Z" fill="white"/>
<path d="M30.9706 67.7432H24V51.2112H31.1372C33.0438 51.2112 34.6506 51.5802 35.9576 52.3208C37.3261 53.1127 38.3384 54.1403 38.9842 55.3961C39.63 56.6544 39.9529 58.01 39.9529 59.4631C39.9529 61.2416 39.5557 62.7459 38.7587 63.9812C37.9079 65.2702 36.7982 66.221 35.4323 66.8309C34.0663 67.4408 32.5774 67.7458 30.9706 67.7458V67.7432ZM31.255 64.2528C31.9624 64.2528 32.644 64.0862 33.3001 63.7582C33.9562 63.4276 34.4969 62.8971 34.93 62.1668C35.3323 61.4646 35.5322 60.583 35.5322 59.5144C35.5322 58.4457 35.3195 57.5206 34.8941 56.8133C34.4277 56.0726 33.8536 55.5422 33.1694 55.2167C32.4852 54.8912 31.7753 54.7298 31.0423 54.7298H28.3233V64.2579H31.255V64.2528Z" fill="white"/>
<path d="M57.1983 67.7433H52.6258L51.4998 64.8167H44.3983L43.2495 67.7433H38.8447L45.9005 51.2114H50.3078L57.1983 67.7433ZM50.2366 61.5185L47.9872 55.6243L45.692 61.5185H50.2366Z" fill="white"/>
<path d="M64.0351 67.7432H59.7092V54.7708H54.7939V51.2112H68.9991V54.7733H64.0377V67.7432H64.0351Z" fill="white"/>
<path d="M84.8805 67.7433H80.2702L79.1349 64.8167H71.9774L70.8191 67.7433H66.3754L73.4894 51.2114H77.9331L84.8805 67.7433ZM77.8613 61.5185L75.5933 55.6243L73.2792 61.5185H77.8613Z" fill="white"/>
<path d="M107.335 67.7433H102.725L101.59 64.8167H94.4322L93.2739 67.7433H88.8302L95.9442 51.2114H100.388L107.335 67.7433ZM100.316 61.5185L98.0482 55.6243L95.7341 61.5185H100.316Z" fill="white"/>
<path d="M88.0463 54.0452H90.9486V56.4065H88.0463V59.3762H85.6849V56.4065H82.7836V54.0452H85.6849V51.2112H88.0463V54.0452Z" fill="white"/>
<path d="M108.594 67.7433V51.2114H112.8V67.7433H108.594Z" fill="white"/>
<g clip-path="url(#clip1_1079_5897)">
<path d="M39.491 35.2375L32.2534 39.3222L24.5034 34.9579L24.1306 35.1598V38.3282L32.2534 42.8944L39.491 38.8252V40.5026L32.2534 44.5873L24.5034 40.223L24.1306 40.4249V40.9685L32.2534 45.5347L40.3607 40.9685V37.8001L39.988 37.5982L32.2534 41.947L25.0004 37.8778V36.2004L32.2534 40.2696L40.3607 35.7034V32.5816L39.9569 32.3487L32.2534 36.6819L25.3731 32.8301L32.2534 28.9629L37.9068 32.1468L38.4038 31.8672V31.4789L32.2534 28.0155L24.1306 32.5816V33.0786L32.2534 37.6448L39.491 33.5601V35.2375Z" fill="white"/>
<path d="M55.5346 42.9409V28.9939H53.3913V34.2124C53.3913 34.2901 53.3447 34.3522 53.2671 34.3832C53.1894 34.4143 53.1118 34.3832 53.0652 34.3366C52.3352 33.4824 51.2014 33.001 49.9589 33.001C47.3031 33.001 45.2219 35.2375 45.2219 38.0952C45.2219 39.493 45.7034 40.7821 46.5887 41.7295C47.4739 42.6769 48.6699 43.1894 49.9589 43.1894C51.1859 43.1894 52.3197 42.6769 53.0652 41.7916C53.1118 41.7295 53.205 41.714 53.2671 41.7295C53.3447 41.7606 53.3913 41.8227 53.3913 41.9003V42.9409H55.5346ZM50.4249 41.248C48.7164 41.248 47.3808 39.8658 47.3808 38.0952C47.3808 36.3246 48.7164 34.9424 50.4249 34.9424C52.1333 34.9424 53.469 36.3246 53.469 38.0952C53.469 39.8658 52.1333 41.248 50.4249 41.248Z" fill="white"/>
<path d="M66.9966 42.9254V33.234H64.8689V34.2124C64.8689 34.2901 64.8223 34.3522 64.7446 34.3833C64.667 34.4143 64.5893 34.3833 64.5427 34.3211C63.8283 33.4669 62.71 32.9855 61.4365 32.9855C58.7806 32.9855 56.6995 35.222 56.6995 38.0797C56.6995 40.9374 58.7806 43.1739 61.4365 43.1739C62.6634 43.1739 63.7972 42.6614 64.5427 41.7606C64.5893 41.6985 64.6825 41.6829 64.7446 41.6985C64.8223 41.7295 64.8689 41.7917 64.8689 41.8693V42.9254H66.9966ZM61.9179 41.2481C60.2095 41.2481 58.8738 39.8658 58.8738 38.0952C58.8738 36.3247 60.2095 34.9424 61.9179 34.9424C63.6264 34.9424 64.9621 36.3247 64.9621 38.0952C64.9621 39.8658 63.6264 41.2481 61.9179 41.2481Z" fill="white"/>
<path d="M85.2148 42.941V33.234H83.087V34.2124C83.087 34.2901 83.0404 34.3522 82.9628 34.3833C82.8851 34.4143 82.8075 34.3833 82.7609 34.3211C82.0464 33.4669 80.9282 32.9855 79.6546 32.9855C76.9833 32.9855 74.9176 35.222 74.9176 38.0952C74.9176 40.9685 76.9988 43.1895 79.6546 43.1895C80.8816 43.1895 82.0154 42.6769 82.7609 41.7761C82.8075 41.714 82.9006 41.6985 82.9628 41.714C83.0404 41.7451 83.087 41.8072 83.087 41.8848V42.941H85.2148ZM80.1361 41.2481C78.4277 41.2481 77.092 39.8658 77.092 38.0952C77.092 36.3247 78.4277 34.9424 80.1361 34.9424C81.8445 34.9424 83.1802 36.3247 83.1802 38.0952C83.1802 39.8658 81.8445 41.2481 80.1361 41.2481Z" fill="white"/>
<path d="M89.1131 41.7916C89.1287 41.7916 89.1597 41.7761 89.1753 41.7761C89.2219 41.7761 89.284 41.8072 89.315 41.8382C90.045 42.6924 91.1788 43.1739 92.4213 43.1739C95.0771 43.1739 97.1583 40.9374 97.1583 38.0797C97.1583 36.6819 96.6768 35.3928 95.7916 34.4454C94.9063 33.498 93.7104 32.9854 92.4213 32.9854C91.1943 32.9854 90.0605 33.498 89.315 34.3832C89.2685 34.4454 89.1908 34.4609 89.1131 34.4454C89.0355 34.4143 88.9889 34.3522 88.9889 34.2745V28.9939H86.8456V42.9409H88.9889V41.9625C88.9889 41.8848 89.0355 41.8227 89.1131 41.7916ZM88.8957 38.0952C88.8957 36.3246 90.2314 34.9424 91.9398 34.9424C93.6483 34.9424 94.9839 36.3246 94.9839 38.0952C94.9839 39.8658 93.6483 41.248 91.9398 41.248C90.2314 41.248 88.8957 39.8502 88.8957 38.0952Z" fill="white"/>
<path d="M103.355 35.2219C103.557 35.2219 103.743 35.2375 103.868 35.2685V33.0631C103.79 33.0476 103.65 33.032 103.51 33.032C102.392 33.032 101.367 33.6067 100.824 34.523C100.777 34.6007 100.699 34.6317 100.622 34.6007C100.544 34.5851 100.482 34.5075 100.482 34.4298V33.2339H98.3541V42.9565H100.497V38.6699C100.497 36.5421 101.585 35.2219 103.355 35.2219Z" fill="white"/>
<path d="M107.393 33.2339H105.219V42.9564H107.393V33.2339Z" fill="white"/>
<path d="M106.275 29.0094C105.545 29.0094 104.955 29.5996 104.955 30.3295C104.955 31.0595 105.545 31.6497 106.275 31.6497C107.005 31.6497 107.595 31.0595 107.595 30.3295C107.595 29.5996 107.005 29.0094 106.275 29.0094Z" fill="white"/>
<path d="M113.761 32.9855C110.779 32.9855 108.62 35.1288 108.62 38.0952C108.62 39.5396 109.133 40.8287 110.049 41.7606C110.981 42.6925 112.286 43.205 113.746 43.205C114.957 43.205 115.889 42.972 117.66 41.6674L116.433 40.3783C115.563 40.953 114.755 41.2325 113.963 41.2325C112.161 41.2325 110.81 39.8813 110.81 38.0952C110.81 36.3091 112.161 34.9579 113.963 34.9579C114.817 34.9579 115.609 35.2375 116.401 35.8121L117.768 34.523C116.169 33.1563 114.724 32.9855 113.761 32.9855Z" fill="white"/>
<path d="M121.434 38.6698C121.465 38.6387 121.511 38.6232 121.558 38.6232H121.573C121.62 38.6232 121.666 38.6543 121.713 38.6853L125.145 42.9409H127.786L123.344 37.5671C123.282 37.4894 123.282 37.3807 123.359 37.3186L127.444 33.2339H124.819L121.294 36.775C121.247 36.8216 121.169 36.8371 121.092 36.8216C121.03 36.7905 120.983 36.7284 120.983 36.6507V29.0094H118.824V42.9564H120.968V39.1668C120.968 39.1202 120.983 39.0581 121.03 39.027L121.434 38.6698Z" fill="white"/>
<path d="M131.28 43.1894C133.035 43.1894 134.821 42.1177 134.821 40.0831C134.821 38.7474 133.983 37.8311 132.274 37.272L131.109 36.8837C130.317 36.6197 129.945 36.2469 129.945 35.7344C129.945 35.1442 130.473 34.7404 131.218 34.7404C131.933 34.7404 132.569 35.2063 132.973 36.0139L134.697 35.0821C134.06 33.7775 132.74 32.9698 131.218 32.9698C129.292 32.9698 127.895 34.2123 127.895 35.9052C127.895 37.2564 128.702 38.1573 130.364 38.6853L131.56 39.0736C132.399 39.3376 132.756 39.6793 132.756 40.2229C132.756 41.0461 131.995 41.3412 131.342 41.3412C130.473 41.3412 129.696 40.782 129.323 39.8657L127.568 40.7976C128.143 42.273 129.556 43.1894 131.28 43.1894Z" fill="white"/>
<path d="M72.9606 43.0962C73.644 43.0962 74.2497 43.0341 74.5914 42.9875V41.1238C74.3119 41.1548 73.8149 41.1859 73.5198 41.1859C72.65 41.1859 71.9822 41.0306 71.9822 39.1513V35.1598C71.9822 35.0511 72.0598 34.9734 72.1685 34.9734H74.2653V33.2184H72.1685C72.0598 33.2184 71.9822 33.1407 71.9822 33.032V30.2364H69.8389V33.0476C69.8389 33.1563 69.7612 33.2339 69.6525 33.2339H68.1615V34.989H69.6525C69.7612 34.989 69.8389 35.0666 69.8389 35.1753V39.6949C69.8389 43.0962 72.1064 43.0962 72.9606 43.0962Z" fill="white"/>
</g>
</g>
<defs>
<filter id="filter0_ii_1079_5897" x="-117.971" y="-104.279" width="366.622" height="325.379" filterUnits="userSpaceOnUse" color-interpolation-filters="sRGB">
<feFlood flood-opacity="0" result="BackgroundImageFix"/>
<feBlend mode="normal" in="SourceGraphic" in2="BackgroundImageFix" result="shape"/>
<feColorMatrix in="SourceAlpha" type="matrix" values="0 0 0 0 0 0 0 0 0 0 0 0 0 0 0 0 0 0 127 0" result="hardAlpha"/>
<feOffset dx="2.22696"/>
<feGaussianBlur stdDeviation="2.96928"/>
<feComposite in2="hardAlpha" operator="arithmetic" k2="-1" k3="1"/>
<feColorMatrix type="matrix" values="0 0 0 0 0.541176 0 0 0 0 0.0666667 0 0 0 0 0.0431373 0 0 0 1 0"/>
<feBlend mode="normal" in2="shape" result="effect1_innerShadow_1079_5897"/>
<feColorMatrix in="SourceAlpha" type="matrix" values="0 0 0 0 0 0 0 0 0 0 0 0 0 0 0 0 0 0 127 0" result="hardAlpha"/>
<feOffset dx="8.7707" dy="6.82166"/>
<feGaussianBlur stdDeviation="7.79618"/>
<feComposite in2="hardAlpha" operator="arithmetic" k2="-1" k3="1"/>
<feColorMatrix type="matrix" values="0 0 0 0 0.541316 0 0 0 0 0.0673842 0 0 0 0 0.041904 0 0 0 1 0"/>
<feBlend mode="normal" in2="effect1_innerShadow_1079_5897" result="effect2_innerShadow_1079_5897"/>
</filter>
<filter id="filter1_ii_1079_5897" x="-86.725" y="-76.5436" width="304.846" height="275.737" filterUnits="userSpaceOnUse" color-interpolation-filters="sRGB">
<feFlood flood-opacity="0" result="BackgroundImageFix"/>
<feBlend mode="normal" in="SourceGraphic" in2="BackgroundImageFix" result="shape"/>
<feColorMatrix in="SourceAlpha" type="matrix" values="0 0 0 0 0 0 0 0 0 0 0 0 0 0 0 0 0 0 127 0" result="hardAlpha"/>
<feOffset/>
<feGaussianBlur stdDeviation="2.63523"/>
<feComposite in2="hardAlpha" operator="arithmetic" k2="-1" k3="1"/>
<feColorMatrix type="matrix" values="0 0 0 0 0.337255 0 0 0 0 0.0156863 0 0 0 0 0.00392157 0 0 0 0.8 0"/>
<feBlend mode="normal" in2="shape" result="effect1_innerShadow_1079_5897"/>
<feColorMatrix in="SourceAlpha" type="matrix" values="0 0 0 0 0 0 0 0 0 0 0 0 0 0 0 0 0 0 127 0" result="hardAlpha"/>
<feOffset dx="9.48685" dy="13.7032"/>
<feGaussianBlur stdDeviation="6.32456"/>
<feComposite in2="hardAlpha" operator="arithmetic" k2="-1" k3="1"/>
<feColorMatrix type="matrix" values="0 0 0 0 0.338435 0 0 0 0 0.0171553 0 0 0 0 0.00547237 0 0 0 1 0"/>
<feBlend mode="normal" in2="effect1_innerShadow_1079_5897" result="effect2_innerShadow_1079_5897"/>
</filter>
<filter id="filter2_ii_1079_5897" x="-56.9728" y="-50.1792" width="246.02" height="221.797" filterUnits="userSpaceOnUse" color-interpolation-filters="sRGB">
<feFlood flood-opacity="0" result="BackgroundImageFix"/>
<feBlend mode="normal" in="SourceGraphic" in2="BackgroundImageFix" result="shape"/>
<feColorMatrix in="SourceAlpha" type="matrix" values="0 0 0 0 0 0 0 0 0 0 0 0 0 0 0 0 0 0 127 0" result="hardAlpha"/>
<feOffset dx="1.0168"/>
<feGaussianBlur stdDeviation="1.90651"/>
<feComposite in2="hardAlpha" operator="arithmetic" k2="-1" k3="1"/>
<feColorMatrix type="matrix" values="0 0 0 0 0.141176 0 0 0 0 0.0117647 0 0 0 0 0.00392157 0 0 0 1 0"/>
<feBlend mode="normal" in2="shape" result="effect1_innerShadow_1079_5897"/>
<feColorMatrix in="SourceAlpha" type="matrix" values="0 0 0 0 0 0 0 0 0 0 0 0 0 0 0 0 0 0 127 0" result="hardAlpha"/>
<feOffset dx="10.168" dy="11.4391"/>
<feGaussianBlur stdDeviation="11.4391"/>
<feComposite in2="hardAlpha" operator="arithmetic" k2="-1" k3="1"/>
<feColorMatrix type="matrix" values="0 0 0 0 0.142409 0 0 0 0 0.0101245 0 0 0 0 0.00297399 0 0 0 1 0"/>
<feBlend mode="normal" in2="effect1_innerShadow_1079_5897" result="effect2_innerShadow_1079_5897"/>
</filter>
<clipPath id="clip0_1079_5897">
<rect width="240" height="96" fill="white"/>
</clipPath>
<clipPath id="clip1_1079_5897">
<rect width="110.706" height="17.5503" fill="white" transform="translate(24.1306 28)"/>
</clipPath>
</defs>
</svg>
