<svg width="1980" height="2000" viewBox="0 0 1980 2000" fill="none" xmlns="http://www.w3.org/2000/svg">
<g clip-path="url(#clip0_5593_2083)">
<path d="M2380 0H-39V2000H2380V0Z" fill="#040531"/>
<path opacity="0.45" d="M1845.46 917.132C1919.49 813.938 1889.78 665.916 1779.1 586.515C1668.42 507.115 1518.68 526.402 1444.65 629.596L330.041 2183.32C256.012 2286.51 285.725 2434.53 396.407 2513.94C507.089 2593.34 656.826 2574.05 730.855 2470.85L1845.46 917.132Z" fill="url(#paint0_linear_5593_2083)"/>
<path opacity="0.45" d="M1002.59 1194.1L1002.61 1194.11C1118.37 1277.02 1279.41 1250.38 1362.32 1134.63L2095.56 110.827C2178.46 -4.92847 2151.83 -165.974 2036.07 -248.877L2036.06 -248.89C1920.3 -331.793 1759.25 -305.161 1676.35 -189.406L943.11 834.396C860.207 950.152 886.839 1111.2 1002.59 1194.1Z" fill="url(#paint1_linear_5593_2083)"/>
<path d="M1268.75 1018.79C1291.5 987.014 1284.19 942.804 1252.42 920.045C1220.64 897.287 1176.43 904.598 1153.67 936.375L810.164 1416C787.405 1447.78 794.716 1491.99 826.493 1514.75C858.27 1537.51 902.48 1530.2 925.239 1498.42L1268.75 1018.79Z" fill="url(#paint2_linear_5593_2083)" fill-opacity="0.3"/>
<path d="M1192.34 1858.63L1192.39 1858.66C1241.18 1893.61 1309.06 1882.38 1344 1833.59L1871.51 1097.05C1906.45 1048.26 1895.22 980.387 1846.43 945.445L1846.38 945.407C1797.59 910.464 1729.72 921.689 1694.77 970.478L1167.27 1707.02C1132.33 1755.81 1143.55 1823.68 1192.34 1858.63Z" fill="url(#paint3_linear_5593_2083)" fill-opacity="0.3"/>
</g>
<defs>
<linearGradient id="paint0_linear_5593_2083" x1="1739.11" y1="642.262" x2="395.768" y2="2514.83" gradientUnits="userSpaceOnUse">
<stop offset="0.2" stop-color="#192C79"/>
<stop offset="0.65" stop-color="#192C79" stop-opacity="0"/>
</linearGradient>
<linearGradient id="paint1_linear_5593_2083" x1="1031.58" y1="1153.66" x2="2034.5" y2="-246.684" gradientUnits="userSpaceOnUse">
<stop offset="0.2" stop-color="#192C79"/>
<stop offset="0.83" stop-color="#192C79" stop-opacity="0"/>
</linearGradient>
<linearGradient id="paint2_linear_5593_2083" x1="1245.57" y1="939.377" x2="832.234" y2="1516.5" gradientUnits="userSpaceOnUse">
<stop offset="0.14" stop-color="#0067B3"/>
<stop offset="0.927769" stop-color="#0067B3" stop-opacity="0"/>
</linearGradient>
<linearGradient id="paint3_linear_5593_2083" x1="1198.87" y1="1830.02" x2="1833.54" y2="943.837" gradientUnits="userSpaceOnUse">
<stop offset="0.14" stop-color="#0067B3"/>
<stop offset="0.86" stop-color="#0067B3" stop-opacity="0"/>
</linearGradient>
<clipPath id="clip0_5593_2083">
<rect width="1980" height="2000" fill="white"/>
</clipPath>
</defs>
</svg>
