<svg width="600" height="300" viewBox="0 0 600 300" fill="none" xmlns="http://www.w3.org/2000/svg">
<path d="M308.658 26L135.453 126M317.319 31L144.113 131M325.979 36L152.774 136M334.639 41L161.434 141M343.299 46L170.094 146M351.96 51L178.754 151M360.62 56L187.415 156M369.28 61L196.075 161M377.94 66L204.735 166M386.601 71L213.396 171M395.261 76L222.056 176M403.921 81L230.716 181M412.581 86L239.376 186M421.242 91L248.037 191M429.902 96L256.697 196M438.562 101L265.357 201M447.222 106L274.017 206M455.883 111L282.678 211M464.543 116L291.338 216M291.338 26L464.543 126M282.678 31L455.883 131M274.017 36L447.222 136M265.357 41L438.562 141M256.697 46L429.902 146M248.037 51L421.242 151M239.376 56L412.581 156M230.716 61L403.921 161M222.056 66L395.261 166M213.396 71L386.601 171M204.735 76L377.94 176M196.075 81L369.28 181M187.415 86L360.62 186M178.754 91L351.96 191M170.094 96L343.299 196M161.434 101L334.639 201M152.774 106L325.979 206M144.113 111L317.319 211M135.453 116L308.658 216M299.998 21L126.793 121L299.998 221L473.203 121L299.998 21Z" stroke="url(#paint0_radial_591_23683)"></path>
<g filter="url(#filter0_d_591_23683)">
<rect width="24" height="24" rx="4" transform="matrix(0.866025 -0.5 0.866025 0.5 111.999 220)" fill="white" shape-rendering="crispEdges"></rect>
<path d="M133.845 213.867L122.16 220.613L131.721 226.133L143.406 219.387L133.845 213.867Z" stroke="#5E7177" stroke-width="0.75" stroke-miterlimit="10"></path>
<path d="M124.901 222.121L136.32 215.521" stroke="#5E7177" stroke-width="0.75" stroke-miterlimit="10"></path>
<path d="M134.664 218.697H137.418L137.418 220.279" stroke="#5E7177" stroke-width="0.75" stroke-miterlimit="10"></path>
<path d="M130.533 221.082L130.533 222.672L133.274 222.672" stroke="#5E7177" stroke-width="0.75" stroke-miterlimit="10"></path>
<path d="M133.384 219.226L134.677 222.304" stroke="#5E7177" stroke-width="0.75" stroke-miterlimit="10"></path>
</g>
<g filter="url(#filter1_d_591_23683)">
<g clip-path="url(#clip0_591_23683)">
<rect width="24" height="24" rx="4" transform="matrix(0.866025 -0.5 0.866025 0.5 194.998 220)" fill="white"></rect>
<path d="M206.04 221.125L217.829 221.219L217.731 214.375L206.04 221.125Z" stroke="#5E7177" stroke-width="0.75" stroke-linejoin="round"></path>
<path d="M206.04 221.125L217.829 221.219L217.731 214.375" stroke="#72BF00" stroke-width="0.75" stroke-linecap="round" stroke-linejoin="round"></path>
<path d="M217.745 214.382L206.053 221.132L213.834 225.625L225.526 218.875L217.745 214.382Z" stroke="#5E7177" stroke-width="0.75" stroke-linejoin="round"></path>
</g>
</g>
<g filter="url(#filter2_d_591_23683)">
<g clip-path="url(#clip1_591_23683)">
<rect width="24" height="24" rx="4" transform="matrix(0.866025 0.5 -0.866025 0.5 133.784 162)" fill="white"></rect>
<path d="M143.819 175.181L131.738 168.206L123.749 172.819L135.83 179.794L143.819 175.181Z" stroke="#5E7177" stroke-width="0.75" stroke-miterlimit="10"></path>
<path d="M130.965 174.338L135.395 174.93L134.375 172.369L130.965 174.338Z" stroke="#72BF00" stroke-width="0.75" stroke-linejoin="round"></path>
</g>
</g>
<g filter="url(#filter3_d_591_23683)">
<g clip-path="url(#clip2_591_23683)">
<rect width="24" height="24" rx="4" transform="matrix(0.866025 -0.5 0.866025 0.5 153.998 197)" fill="white"></rect>
<path d="M174.257 190.82L166.508 195.294C165.891 195.65 165.885 196.231 166.508 196.591L173.77 200.784" stroke="#5E7177" stroke-width="0.75" stroke-miterlimit="10"></path>
<path d="M183.22 198.613L175.433 203.109C174.815 203.465 173.809 203.469 173.185 203.109L171.503 202.138L179.362 197.6L181.044 198.571C181.661 198.928 182.668 198.931 183.292 198.571L183.357 198.534C183.974 198.178 183.98 197.596 183.357 197.236L173.25 191.401" stroke="#5E7177" stroke-width="0.75" stroke-miterlimit="10"></path>
<path d="M176.05 193.025L178.063 191.863L176.381 190.891C175.764 190.535 174.822 190.494 174.276 190.809L174.218 190.843C173.679 191.154 173.737 191.698 174.361 192.058L175.484 192.706" stroke="#5E7177" stroke-width="0.75" stroke-miterlimit="10"></path>
<path d="M169.736 196.025L173.283 193.978" stroke="#5E7177" stroke-width="0.75" stroke-miterlimit="10"></path>
<path d="M171.711 197.165L175.257 195.118" stroke="#5E7177" stroke-width="0.75" stroke-miterlimit="10"></path>
<path d="M173.692 198.309L177.238 196.261" stroke="#5E7177" stroke-width="0.75" stroke-miterlimit="10"></path>
</g>
</g>
<g filter="url(#filter4_d_591_23683)">
<g clip-path="url(#clip3_591_23683)">
<rect width="24" height="24" rx="4" transform="matrix(0.866025 -0.5 0.866025 0.5 193.998 266)" fill="white"></rect>
<path d="M215.601 259.498L203.52 266.473L211.509 271.085L223.59 264.11L215.601 259.498Z" stroke="#5E7177" stroke-width="0.75" stroke-miterlimit="10"></path>
<path d="M214.134 266.922L215.16 264.365L210.724 264.954L214.134 266.922Z" stroke="#72BF00" stroke-width="0.75" stroke-linejoin="round"></path>
<path d="M224.558 266.379L215.433 271.655" stroke="#5E7177" stroke-width="0.75" stroke-miterlimit="10"></path>
<path d="M219.999 269.019L217.544 267.601" stroke="#5E7177" stroke-width="0.75" stroke-miterlimit="10"></path>
<path d="M215.601 259.498L203.52 266.473L211.509 271.085L223.59 264.11L215.601 259.498Z" stroke="#5E7177" stroke-width="0.75" stroke-miterlimit="10"></path>
<path d="M214.134 266.922L215.16 264.365L210.724 264.954L214.134 266.922Z" stroke="#72BF00" stroke-width="0.75" stroke-linejoin="round"></path>
<path d="M224.558 266.379L215.433 271.655" stroke="#5E7177" stroke-width="0.75" stroke-miterlimit="10"></path>
<path d="M219.999 269.019L217.544 267.601" stroke="#5E7177" stroke-width="0.75" stroke-miterlimit="10"></path>
</g>
</g>
<g filter="url(#filter5_d_591_23683)">
<rect width="24" height="24" rx="4" transform="matrix(0.866025 0.5 -0.866025 0.5 91.7836 185)" fill="white" shape-rendering="crispEdges"></rect>
<path d="M90.5138 203.298L80.8749 197.733L93.0534 190.702L99.3992 194.366L99.5486 198.082L90.5138 203.298Z" stroke="#5E7177" stroke-width="0.75" stroke-miterlimit="10"></path>
<path d="M89.5655 195.461L94.4499 198.281" stroke="#5E7177" stroke-width="0.75" stroke-miterlimit="10"></path>
<path d="M86.831 197.039L91.7154 199.859" stroke="#5E7177" stroke-width="0.75" stroke-miterlimit="10"></path>
<path d="M99.5486 198.082L96.2556 196.181L99.3992 194.366" stroke="#5E7177" stroke-width="0.75" stroke-miterlimit="10"></path>
</g>
<g filter="url(#filter6_d_591_23683)">
<g clip-path="url(#clip4_591_23683)">
<rect width="24" height="24" rx="4" transform="matrix(0.866025 -0.5 0.866025 0.5 235.998 243)" fill="white"></rect>
<path d="M250.976 240.675L247.345 242.771L249.476 244.001L253.107 241.905L250.976 240.675Z" stroke="#5E7177" stroke-width="0.75" stroke-miterlimit="10"></path>
<path d="M256.387 237.551L252.756 239.647L254.886 240.877L258.517 238.781L256.387 237.551Z" stroke="#5E7177" stroke-width="0.75" stroke-miterlimit="10"></path>
<path d="M254.828 242.899L251.197 244.995L253.328 246.225L256.958 244.129L254.828 242.899Z" stroke="#5E7177" stroke-width="0.75" stroke-miterlimit="10"></path>
<path d="M260.238 239.775L256.608 241.871L258.738 243.101L262.369 241.005L260.238 239.775Z" stroke="#5E7177" stroke-width="0.75" stroke-miterlimit="10"></path>
<path d="M258.68 245.122L255.049 247.219L257.179 248.449L260.81 246.352L258.68 245.122Z" stroke="#5E7177" stroke-width="0.75" stroke-miterlimit="10"></path>
<path d="M264.09 241.999L260.459 244.095L262.59 245.325L266.221 243.229L264.09 241.999Z" stroke="#5E7177" stroke-width="0.75" stroke-miterlimit="10"></path>
</g>
</g>
<g filter="url(#filter7_d_591_23683)">
<rect width="24" height="24" rx="4" transform="matrix(0.866025 0.5 -0.866025 0.5 173.998 231)" fill="white" shape-rendering="crispEdges"></rect>
<path d="M170.819 248.758L162.343 243.864L173.06 237.677L178.639 240.898L178.769 244.168L170.819 248.758Z" stroke="#5E7177" stroke-width="0.75" stroke-miterlimit="10"></path>
<path d="M174.736 238.644L177.171 237.238L185.654 242.136L174.937 248.323L173.255 247.352" stroke="#5E7177" stroke-width="0.75" stroke-miterlimit="10"></path>
<path d="M169.981 241.862L174.281 244.344" stroke="#5E7177" stroke-width="0.75" stroke-miterlimit="10"></path>
<path d="M167.578 243.249L171.878 245.732" stroke="#5E7177" stroke-width="0.75" stroke-miterlimit="10"></path>
<path d="M178.769 244.168L175.872 242.496L178.639 240.898" stroke="#5E7177" stroke-width="0.75" stroke-miterlimit="10"></path>
</g>
<g filter="url(#filter8_d_591_23683)">
<rect width="24" height="24" rx="4" transform="matrix(0.866025 -0.5 0.866025 0.5 362 267)" fill="white" shape-rendering="crispEdges"></rect>
<path d="M383.846 260.867L372.161 267.613L381.722 273.133L393.407 266.387L383.846 260.867Z" stroke="#5E7177" stroke-width="0.75" stroke-miterlimit="10"></path>
<path d="M374.902 269.121L386.321 262.521" stroke="#5E7177" stroke-width="0.75" stroke-miterlimit="10"></path>
<path d="M384.665 265.697H387.419L387.419 267.279" stroke="#5E7177" stroke-width="0.75" stroke-miterlimit="10"></path>
<path d="M380.534 268.082L380.534 269.672L383.275 269.672" stroke="#5E7177" stroke-width="0.75" stroke-miterlimit="10"></path>
<path d="M383.385 266.226L384.678 269.304" stroke="#5E7177" stroke-width="0.75" stroke-miterlimit="10"></path>
</g>
<g filter="url(#filter9_d_591_23683)">
<g clip-path="url(#clip5_591_23683)">
<rect width="24" height="24" rx="4" transform="matrix(0.866025 -0.5 0.866025 0.5 446.784 174)" fill="white"></rect>
<path d="M457.826 175.125L469.614 175.219L469.517 168.375L457.826 175.125Z" stroke="#5E7177" stroke-width="0.75" stroke-linejoin="round"></path>
<path d="M457.826 175.125L469.614 175.219L469.517 168.375" stroke="#72BF00" stroke-width="0.75" stroke-linecap="round" stroke-linejoin="round"></path>
<path d="M469.53 168.382L457.839 175.132L465.62 179.625L477.311 172.875L469.53 168.382Z" stroke="#5E7177" stroke-width="0.75" stroke-linejoin="round"></path>
</g>
</g>
<g filter="url(#filter10_d_591_23683)">
<g clip-path="url(#clip6_591_23683)">
<rect width="24" height="24" rx="4" transform="matrix(0.866025 0.5 -0.866025 0.5 383.785 209)" fill="white"></rect>
<path d="M393.82 222.181L381.739 215.206L373.75 219.819L385.831 226.794L393.82 222.181Z" stroke="#5E7177" stroke-width="0.75" stroke-miterlimit="10"></path>
<path d="M380.966 221.338L385.396 221.93L384.376 219.369L380.966 221.338Z" stroke="#72BF00" stroke-width="0.75" stroke-linejoin="round"></path>
</g>
</g>
<g filter="url(#filter11_d_591_23683)">
<g clip-path="url(#clip7_591_23683)">
<rect width="24" height="24" rx="4" transform="matrix(0.866025 -0.5 0.866025 0.5 403.999 244)" fill="white"></rect>
<path d="M424.258 237.82L416.509 242.294C415.892 242.65 415.885 243.231 416.509 243.591L423.77 247.784" stroke="#5E7177" stroke-width="0.75" stroke-miterlimit="10"></path>
<path d="M433.221 245.613L425.433 250.109C424.816 250.465 423.809 250.469 423.186 250.109L421.504 249.138L429.363 244.6L431.045 245.571C431.662 245.928 432.669 245.931 433.292 245.571L433.357 245.534C433.974 245.178 433.981 244.596 433.357 244.236L423.251 238.401" stroke="#5E7177" stroke-width="0.75" stroke-miterlimit="10"></path>
<path d="M426.05 240.025L428.064 238.863L426.382 237.891C425.764 237.535 424.823 237.494 424.277 237.809L424.219 237.843C423.68 238.154 423.738 238.698 424.362 239.058L425.485 239.706" stroke="#5E7177" stroke-width="0.75" stroke-miterlimit="10"></path>
<path d="M419.737 243.025L423.283 240.978" stroke="#5E7177" stroke-width="0.75" stroke-miterlimit="10"></path>
<path d="M421.711 244.165L425.258 242.118" stroke="#5E7177" stroke-width="0.75" stroke-miterlimit="10"></path>
<path d="M423.693 245.309L427.239 243.261" stroke="#5E7177" stroke-width="0.75" stroke-miterlimit="10"></path>
</g>
</g>
<g filter="url(#filter12_d_591_23683)">
<g clip-path="url(#clip8_591_23683)">
<rect width="24" height="24" rx="4" transform="matrix(0.866025 -0.5 0.866025 0.5 445.784 220)" fill="white"></rect>
<path d="M467.387 213.498L455.306 220.473L463.295 225.085L475.376 218.11L467.387 213.498Z" stroke="#5E7177" stroke-width="0.75" stroke-miterlimit="10"></path>
<path d="M465.919 220.922L466.945 218.365L462.509 218.954L465.919 220.922Z" stroke="#72BF00" stroke-width="0.75" stroke-linejoin="round"></path>
<path d="M476.344 220.379L467.218 225.655" stroke="#5E7177" stroke-width="0.75" stroke-miterlimit="10"></path>
<path d="M471.784 223.019L469.329 221.601" stroke="#5E7177" stroke-width="0.75" stroke-miterlimit="10"></path>
<path d="M467.387 213.498L455.306 220.473L463.295 225.085L475.376 218.11L467.387 213.498Z" stroke="#5E7177" stroke-width="0.75" stroke-miterlimit="10"></path>
<path d="M465.919 220.922L466.945 218.365L462.509 218.954L465.919 220.922Z" stroke="#72BF00" stroke-width="0.75" stroke-linejoin="round"></path>
<path d="M476.344 220.379L467.218 225.655" stroke="#5E7177" stroke-width="0.75" stroke-miterlimit="10"></path>
<path d="M471.784 223.019L469.329 221.601" stroke="#5E7177" stroke-width="0.75" stroke-miterlimit="10"></path>
</g>
</g>
<g filter="url(#filter13_d_591_23683)">
<rect width="24" height="24" rx="4" transform="matrix(0.866025 0.5 -0.866025 0.5 341.785 232)" fill="white" shape-rendering="crispEdges"></rect>
<path d="M340.515 250.298L330.876 244.733L343.054 237.702L349.4 241.366L349.55 245.082L340.515 250.298Z" stroke="#5E7177" stroke-width="0.75" stroke-miterlimit="10"></path>
<path d="M339.566 242.461L344.451 245.281" stroke="#5E7177" stroke-width="0.75" stroke-miterlimit="10"></path>
<path d="M336.832 244.039L341.716 246.859" stroke="#5E7177" stroke-width="0.75" stroke-miterlimit="10"></path>
<path d="M349.55 245.082L346.256 243.181L349.4 241.366" stroke="#5E7177" stroke-width="0.75" stroke-miterlimit="10"></path>
</g>
<g filter="url(#filter14_d_591_23683)">
<g clip-path="url(#clip9_591_23683)">
<rect width="24" height="24" rx="4" transform="matrix(0.866025 -0.5 0.866025 0.5 487.784 197)" fill="white"></rect>
<path d="M502.762 194.675L499.131 196.771L501.261 198.001L504.892 195.905L502.762 194.675Z" stroke="#5E7177" stroke-width="0.75" stroke-miterlimit="10"></path>
<path d="M508.172 191.551L504.542 193.647L506.672 194.877L510.303 192.781L508.172 191.551Z" stroke="#5E7177" stroke-width="0.75" stroke-miterlimit="10"></path>
<path d="M506.614 196.899L502.983 198.995L505.113 200.225L508.744 198.129L506.614 196.899Z" stroke="#5E7177" stroke-width="0.75" stroke-miterlimit="10"></path>
<path d="M512.024 193.775L508.393 195.871L510.524 197.101L514.155 195.005L512.024 193.775Z" stroke="#5E7177" stroke-width="0.75" stroke-miterlimit="10"></path>
<path d="M510.465 199.122L506.834 201.219L508.965 202.449L512.596 200.352L510.465 199.122Z" stroke="#5E7177" stroke-width="0.75" stroke-miterlimit="10"></path>
<path d="M515.876 195.999L512.245 198.095L514.375 199.325L518.006 197.229L515.876 195.999Z" stroke="#5E7177" stroke-width="0.75" stroke-miterlimit="10"></path>
</g>
</g>
<g filter="url(#filter15_d_591_23683)">
<rect width="24" height="24" rx="4" transform="matrix(0.866025 0.5 -0.866025 0.5 425.784 185)" fill="white" shape-rendering="crispEdges"></rect>
<path d="M422.605 202.758L414.128 197.864L424.846 191.677L430.425 194.898L430.555 198.168L422.605 202.758Z" stroke="#5E7177" stroke-width="0.75" stroke-miterlimit="10"></path>
<path d="M426.521 192.644L428.957 191.238L437.44 196.136L426.723 202.323L425.04 201.352" stroke="#5E7177" stroke-width="0.75" stroke-miterlimit="10"></path>
<path d="M421.767 195.862L426.067 198.344" stroke="#5E7177" stroke-width="0.75" stroke-miterlimit="10"></path>
<path d="M419.364 197.249L423.663 199.732" stroke="#5E7177" stroke-width="0.75" stroke-miterlimit="10"></path>
<path d="M430.555 198.168L427.658 196.496L430.425 194.898" stroke="#5E7177" stroke-width="0.75" stroke-miterlimit="10"></path>
</g>
<g filter="url(#filter16_d_591_23683)">
<rect width="180.58" height="185.534" rx="10" transform="matrix(0.866025 0.5 -0.866025 0.5 301.998 43)" fill="url(#paint1_linear_591_23683)" fill-opacity="0.5" shape-rendering="crispEdges"></rect>
</g>
<g filter="url(#filter17_d_591_23683)">
<rect width="48" height="48" rx="5" transform="matrix(0.866025 -0.5 0.866025 0.5 194.998 125)" fill="#B7500C" shape-rendering="crispEdges"></rect>
<path d="M215.64 127.46L219.329 125.33L215.64 123.2L211.95 125.33L215.64 127.46Z" stroke="white" stroke-width="0.75" stroke-linejoin="round"></path>
<path d="M223.434 131.96L227.123 129.83L223.434 127.7L219.745 129.83L223.434 131.96Z" stroke="white" stroke-width="0.75" stroke-linejoin="round"></path>
<path d="M231.228 136.46L234.917 134.33L231.228 132.2L227.539 134.33L231.228 136.46Z" stroke="white" stroke-width="0.75" stroke-linejoin="round"></path>
<path d="M223.434 122.96L227.123 120.83L223.434 118.7L219.745 120.83L223.434 122.96Z" stroke="white" stroke-width="0.75" stroke-linejoin="round"></path>
<path d="M231.228 118.46L234.917 116.33L231.228 114.2L227.539 116.33L231.228 118.46Z" stroke="white" stroke-width="0.75" stroke-linejoin="round"></path>
<path d="M245.401 121.602H250.103V124.302" stroke="white" stroke-width="0.75" stroke-miterlimit="10"></path>
<path d="M238.347 125.675V128.39H243.023" stroke="white" stroke-width="0.75" stroke-miterlimit="10"></path>
<path d="M244.868 115.25L227.331 125.375L243.647 134.795L261.184 124.67L244.868 115.25Z" stroke="white" stroke-width="0.75" stroke-miterlimit="10"></path>
<path d="M243.205 122.51L245.414 127.76" stroke="white" stroke-width="0.75" stroke-miterlimit="10"></path>
</g>
<g filter="url(#filter18_d_591_23683)">
<rect width="48" height="48" rx="5" transform="matrix(0.866025 0.5 -0.866025 0.5 364.141 101)" fill="#B7500C" shape-rendering="crispEdges"></rect>
<path d="M370.175 124.891L364.329 121.516L358.483 124.891L364.329 128.266L370.175 124.891Z" stroke="white" stroke-width="0.75" stroke-linejoin="round"></path>
<path d="M381.866 118.141L376.02 114.766L370.175 118.141L376.02 121.516L381.866 118.141Z" stroke="white" stroke-width="0.75" stroke-linejoin="round"></path>
<path d="M358.483 131.641L352.638 128.266L346.792 131.641L352.638 135.016L358.483 131.641Z" stroke="white" stroke-width="0.75" stroke-linejoin="round"></path>
<path d="M358.12 121.321L351.001 117.211L362.705 110.454L370.045 114.691" stroke="white" stroke-width="0.75" stroke-miterlimit="10"></path>
<path d="M358.12 117.481L358.12 121.306L351.494 121.306" stroke="white" stroke-width="0.75" stroke-miterlimit="10"></path>
<path d="M358.834 135.219L365.953 139.329L377.657 132.571L370.305 128.326" stroke="white" stroke-width="0.75" stroke-miterlimit="10"></path>
<path d="M365.472 135.211L358.847 135.211L358.847 139.036" stroke="white" stroke-width="0.75" stroke-miterlimit="10"></path>
</g>
<g filter="url(#filter19_d_591_23683)">
<rect width="64" height="64" rx="5" transform="matrix(0.866025 -0.5 0.866025 0.5 244.998 162)" fill="#B7500C" shape-rendering="crispEdges"></rect>
<path d="M285.753 152.94L280.557 155.94L285.753 158.94L290.949 155.94L285.753 152.94Z" stroke="white" stroke-width="0.75" stroke-linejoin="round"></path>
<path d="M296.146 146.94L290.949 149.94L296.146 152.94L301.342 149.94L296.146 146.94Z" stroke="white" stroke-width="0.75" stroke-linejoin="round"></path>
<path d="M285.753 164.94L280.557 167.94L285.753 170.94L290.949 167.94L285.753 164.94Z" stroke="white" stroke-width="0.75" stroke-linejoin="round"></path>
<path d="M275.361 158.94L270.165 161.94L275.361 164.94L280.557 161.94L275.361 158.94Z" stroke="white" stroke-width="0.75" stroke-linejoin="round"></path>
<path d="M296.146 170.94L290.949 173.94L296.146 176.94L301.342 173.94L296.146 170.94Z" stroke="white" stroke-width="0.75" stroke-linejoin="round"></path>
<path d="M316.203 161.84L330.683 162.06" stroke="white" stroke-width="0.75"></path>
<path d="M313.31 166.13C317.328 163.81 317.149 159.947 312.912 157.5C308.674 155.053 301.982 154.95 297.964 157.27C293.946 159.59 294.125 163.453 298.363 165.9C302.6 168.347 309.292 168.45 313.31 166.13Z" stroke="white" stroke-width="0.75"></path>
</g>
<defs>
<filter id="filter0_d_591_23683" x="107.999" y="206" width="49.5692" height="32" filterUnits="userSpaceOnUse" color-interpolation-filters="sRGB">
<feFlood flood-opacity="0" result="BackgroundImageFix"></feFlood>
<feColorMatrix in="SourceAlpha" type="matrix" values="0 0 0 0 0 0 0 0 0 0 0 0 0 0 0 0 0 0 127 0" result="hardAlpha"></feColorMatrix>
<feOffset dy="2"></feOffset>
<feGaussianBlur stdDeviation="2"></feGaussianBlur>
<feComposite in2="hardAlpha" operator="out"></feComposite>
<feColorMatrix type="matrix" values="0 0 0 0 0 0 0 0 0 0 0 0 0 0 0 0 0 0 0.2 0"></feColorMatrix>
<feBlend mode="normal" in2="BackgroundImageFix" result="effect1_dropShadow_591_23683"></feBlend>
<feBlend mode="normal" in="SourceGraphic" in2="effect1_dropShadow_591_23683" result="shape"></feBlend>
</filter>
<filter id="filter1_d_591_23683" x="190.998" y="206" width="49.5692" height="32" filterUnits="userSpaceOnUse" color-interpolation-filters="sRGB">
<feFlood flood-opacity="0" result="BackgroundImageFix"></feFlood>
<feColorMatrix in="SourceAlpha" type="matrix" values="0 0 0 0 0 0 0 0 0 0 0 0 0 0 0 0 0 0 127 0" result="hardAlpha"></feColorMatrix>
<feOffset dy="2"></feOffset>
<feGaussianBlur stdDeviation="2"></feGaussianBlur>
<feComposite in2="hardAlpha" operator="out"></feComposite>
<feColorMatrix type="matrix" values="0 0 0 0 0 0 0 0 0 0 0 0 0 0 0 0 0 0 0.2 0"></feColorMatrix>
<feBlend mode="normal" in2="BackgroundImageFix" result="effect1_dropShadow_591_23683"></feBlend>
<feBlend mode="normal" in="SourceGraphic" in2="effect1_dropShadow_591_23683" result="shape"></feBlend>
</filter>
<filter id="filter2_d_591_23683" x="108.999" y="160" width="49.5692" height="32" filterUnits="userSpaceOnUse" color-interpolation-filters="sRGB">
<feFlood flood-opacity="0" result="BackgroundImageFix"></feFlood>
<feColorMatrix in="SourceAlpha" type="matrix" values="0 0 0 0 0 0 0 0 0 0 0 0 0 0 0 0 0 0 127 0" result="hardAlpha"></feColorMatrix>
<feOffset dy="2"></feOffset>
<feGaussianBlur stdDeviation="2"></feGaussianBlur>
<feComposite in2="hardAlpha" operator="out"></feComposite>
<feColorMatrix type="matrix" values="0 0 0 0 0 0 0 0 0 0 0 0 0 0 0 0 0 0 0.2 0"></feColorMatrix>
<feBlend mode="normal" in2="BackgroundImageFix" result="effect1_dropShadow_591_23683"></feBlend>
<feBlend mode="normal" in="SourceGraphic" in2="effect1_dropShadow_591_23683" result="shape"></feBlend>
</filter>
<filter id="filter3_d_591_23683" x="149.998" y="183" width="49.5692" height="32" filterUnits="userSpaceOnUse" color-interpolation-filters="sRGB">
<feFlood flood-opacity="0" result="BackgroundImageFix"></feFlood>
<feColorMatrix in="SourceAlpha" type="matrix" values="0 0 0 0 0 0 0 0 0 0 0 0 0 0 0 0 0 0 127 0" result="hardAlpha"></feColorMatrix>
<feOffset dy="2"></feOffset>
<feGaussianBlur stdDeviation="2"></feGaussianBlur>
<feComposite in2="hardAlpha" operator="out"></feComposite>
<feColorMatrix type="matrix" values="0 0 0 0 0 0 0 0 0 0 0 0 0 0 0 0 0 0 0.2 0"></feColorMatrix>
<feBlend mode="normal" in2="BackgroundImageFix" result="effect1_dropShadow_591_23683"></feBlend>
<feBlend mode="normal" in="SourceGraphic" in2="effect1_dropShadow_591_23683" result="shape"></feBlend>
</filter>
<filter id="filter4_d_591_23683" x="189.998" y="252" width="49.5692" height="32" filterUnits="userSpaceOnUse" color-interpolation-filters="sRGB">
<feFlood flood-opacity="0" result="BackgroundImageFix"></feFlood>
<feColorMatrix in="SourceAlpha" type="matrix" values="0 0 0 0 0 0 0 0 0 0 0 0 0 0 0 0 0 0 127 0" result="hardAlpha"></feColorMatrix>
<feOffset dy="2"></feOffset>
<feGaussianBlur stdDeviation="2"></feGaussianBlur>
<feComposite in2="hardAlpha" operator="out"></feComposite>
<feColorMatrix type="matrix" values="0 0 0 0 0 0 0 0 0 0 0 0 0 0 0 0 0 0 0.2 0"></feColorMatrix>
<feBlend mode="normal" in2="BackgroundImageFix" result="effect1_dropShadow_591_23683"></feBlend>
<feBlend mode="normal" in="SourceGraphic" in2="effect1_dropShadow_591_23683" result="shape"></feBlend>
</filter>
<filter id="filter5_d_591_23683" x="66.999" y="183" width="49.5692" height="32" filterUnits="userSpaceOnUse" color-interpolation-filters="sRGB">
<feFlood flood-opacity="0" result="BackgroundImageFix"></feFlood>
<feColorMatrix in="SourceAlpha" type="matrix" values="0 0 0 0 0 0 0 0 0 0 0 0 0 0 0 0 0 0 127 0" result="hardAlpha"></feColorMatrix>
<feOffset dy="2"></feOffset>
<feGaussianBlur stdDeviation="2"></feGaussianBlur>
<feComposite in2="hardAlpha" operator="out"></feComposite>
<feColorMatrix type="matrix" values="0 0 0 0 0 0 0 0 0 0 0 0 0 0 0 0 0 0 0.2 0"></feColorMatrix>
<feBlend mode="normal" in2="BackgroundImageFix" result="effect1_dropShadow_591_23683"></feBlend>
<feBlend mode="normal" in="SourceGraphic" in2="effect1_dropShadow_591_23683" result="shape"></feBlend>
</filter>
<filter id="filter6_d_591_23683" x="231.998" y="229" width="49.5692" height="32" filterUnits="userSpaceOnUse" color-interpolation-filters="sRGB">
<feFlood flood-opacity="0" result="BackgroundImageFix"></feFlood>
<feColorMatrix in="SourceAlpha" type="matrix" values="0 0 0 0 0 0 0 0 0 0 0 0 0 0 0 0 0 0 127 0" result="hardAlpha"></feColorMatrix>
<feOffset dy="2"></feOffset>
<feGaussianBlur stdDeviation="2"></feGaussianBlur>
<feComposite in2="hardAlpha" operator="out"></feComposite>
<feColorMatrix type="matrix" values="0 0 0 0 0 0 0 0 0 0 0 0 0 0 0 0 0 0 0.2 0"></feColorMatrix>
<feBlend mode="normal" in2="BackgroundImageFix" result="effect1_dropShadow_591_23683"></feBlend>
<feBlend mode="normal" in="SourceGraphic" in2="effect1_dropShadow_591_23683" result="shape"></feBlend>
</filter>
<filter id="filter7_d_591_23683" x="149.214" y="229" width="49.5692" height="32" filterUnits="userSpaceOnUse" color-interpolation-filters="sRGB">
<feFlood flood-opacity="0" result="BackgroundImageFix"></feFlood>
<feColorMatrix in="SourceAlpha" type="matrix" values="0 0 0 0 0 0 0 0 0 0 0 0 0 0 0 0 0 0 127 0" result="hardAlpha"></feColorMatrix>
<feOffset dy="2"></feOffset>
<feGaussianBlur stdDeviation="2"></feGaussianBlur>
<feComposite in2="hardAlpha" operator="out"></feComposite>
<feColorMatrix type="matrix" values="0 0 0 0 0 0 0 0 0 0 0 0 0 0 0 0 0 0 0.2 0"></feColorMatrix>
<feBlend mode="normal" in2="BackgroundImageFix" result="effect1_dropShadow_591_23683"></feBlend>
<feBlend mode="normal" in="SourceGraphic" in2="effect1_dropShadow_591_23683" result="shape"></feBlend>
</filter>
<filter id="filter8_d_591_23683" x="358" y="253" width="49.5692" height="32" filterUnits="userSpaceOnUse" color-interpolation-filters="sRGB">
<feFlood flood-opacity="0" result="BackgroundImageFix"></feFlood>
<feColorMatrix in="SourceAlpha" type="matrix" values="0 0 0 0 0 0 0 0 0 0 0 0 0 0 0 0 0 0 127 0" result="hardAlpha"></feColorMatrix>
<feOffset dy="2"></feOffset>
<feGaussianBlur stdDeviation="2"></feGaussianBlur>
<feComposite in2="hardAlpha" operator="out"></feComposite>
<feColorMatrix type="matrix" values="0 0 0 0 0 0 0 0 0 0 0 0 0 0 0 0 0 0 0.2 0"></feColorMatrix>
<feBlend mode="normal" in2="BackgroundImageFix" result="effect1_dropShadow_591_23683"></feBlend>
<feBlend mode="normal" in="SourceGraphic" in2="effect1_dropShadow_591_23683" result="shape"></feBlend>
</filter>
<filter id="filter9_d_591_23683" x="442.784" y="160" width="49.5692" height="32" filterUnits="userSpaceOnUse" color-interpolation-filters="sRGB">
<feFlood flood-opacity="0" result="BackgroundImageFix"></feFlood>
<feColorMatrix in="SourceAlpha" type="matrix" values="0 0 0 0 0 0 0 0 0 0 0 0 0 0 0 0 0 0 127 0" result="hardAlpha"></feColorMatrix>
<feOffset dy="2"></feOffset>
<feGaussianBlur stdDeviation="2"></feGaussianBlur>
<feComposite in2="hardAlpha" operator="out"></feComposite>
<feColorMatrix type="matrix" values="0 0 0 0 0 0 0 0 0 0 0 0 0 0 0 0 0 0 0.2 0"></feColorMatrix>
<feBlend mode="normal" in2="BackgroundImageFix" result="effect1_dropShadow_591_23683"></feBlend>
<feBlend mode="normal" in="SourceGraphic" in2="effect1_dropShadow_591_23683" result="shape"></feBlend>
</filter>
<filter id="filter10_d_591_23683" x="359" y="207" width="49.5692" height="32" filterUnits="userSpaceOnUse" color-interpolation-filters="sRGB">
<feFlood flood-opacity="0" result="BackgroundImageFix"></feFlood>
<feColorMatrix in="SourceAlpha" type="matrix" values="0 0 0 0 0 0 0 0 0 0 0 0 0 0 0 0 0 0 127 0" result="hardAlpha"></feColorMatrix>
<feOffset dy="2"></feOffset>
<feGaussianBlur stdDeviation="2"></feGaussianBlur>
<feComposite in2="hardAlpha" operator="out"></feComposite>
<feColorMatrix type="matrix" values="0 0 0 0 0 0 0 0 0 0 0 0 0 0 0 0 0 0 0.2 0"></feColorMatrix>
<feBlend mode="normal" in2="BackgroundImageFix" result="effect1_dropShadow_591_23683"></feBlend>
<feBlend mode="normal" in="SourceGraphic" in2="effect1_dropShadow_591_23683" result="shape"></feBlend>
</filter>
<filter id="filter11_d_591_23683" x="399.999" y="230" width="49.5692" height="32" filterUnits="userSpaceOnUse" color-interpolation-filters="sRGB">
<feFlood flood-opacity="0" result="BackgroundImageFix"></feFlood>
<feColorMatrix in="SourceAlpha" type="matrix" values="0 0 0 0 0 0 0 0 0 0 0 0 0 0 0 0 0 0 127 0" result="hardAlpha"></feColorMatrix>
<feOffset dy="2"></feOffset>
<feGaussianBlur stdDeviation="2"></feGaussianBlur>
<feComposite in2="hardAlpha" operator="out"></feComposite>
<feColorMatrix type="matrix" values="0 0 0 0 0 0 0 0 0 0 0 0 0 0 0 0 0 0 0.2 0"></feColorMatrix>
<feBlend mode="normal" in2="BackgroundImageFix" result="effect1_dropShadow_591_23683"></feBlend>
<feBlend mode="normal" in="SourceGraphic" in2="effect1_dropShadow_591_23683" result="shape"></feBlend>
</filter>
<filter id="filter12_d_591_23683" x="441.784" y="206" width="49.5692" height="32" filterUnits="userSpaceOnUse" color-interpolation-filters="sRGB">
<feFlood flood-opacity="0" result="BackgroundImageFix"></feFlood>
<feColorMatrix in="SourceAlpha" type="matrix" values="0 0 0 0 0 0 0 0 0 0 0 0 0 0 0 0 0 0 127 0" result="hardAlpha"></feColorMatrix>
<feOffset dy="2"></feOffset>
<feGaussianBlur stdDeviation="2"></feGaussianBlur>
<feComposite in2="hardAlpha" operator="out"></feComposite>
<feColorMatrix type="matrix" values="0 0 0 0 0 0 0 0 0 0 0 0 0 0 0 0 0 0 0.2 0"></feColorMatrix>
<feBlend mode="normal" in2="BackgroundImageFix" result="effect1_dropShadow_591_23683"></feBlend>
<feBlend mode="normal" in="SourceGraphic" in2="effect1_dropShadow_591_23683" result="shape"></feBlend>
</filter>
<filter id="filter13_d_591_23683" x="317" y="230" width="49.5692" height="32" filterUnits="userSpaceOnUse" color-interpolation-filters="sRGB">
<feFlood flood-opacity="0" result="BackgroundImageFix"></feFlood>
<feColorMatrix in="SourceAlpha" type="matrix" values="0 0 0 0 0 0 0 0 0 0 0 0 0 0 0 0 0 0 127 0" result="hardAlpha"></feColorMatrix>
<feOffset dy="2"></feOffset>
<feGaussianBlur stdDeviation="2"></feGaussianBlur>
<feComposite in2="hardAlpha" operator="out"></feComposite>
<feColorMatrix type="matrix" values="0 0 0 0 0 0 0 0 0 0 0 0 0 0 0 0 0 0 0.2 0"></feColorMatrix>
<feBlend mode="normal" in2="BackgroundImageFix" result="effect1_dropShadow_591_23683"></feBlend>
<feBlend mode="normal" in="SourceGraphic" in2="effect1_dropShadow_591_23683" result="shape"></feBlend>
</filter>
<filter id="filter14_d_591_23683" x="483.784" y="183" width="49.5692" height="32" filterUnits="userSpaceOnUse" color-interpolation-filters="sRGB">
<feFlood flood-opacity="0" result="BackgroundImageFix"></feFlood>
<feColorMatrix in="SourceAlpha" type="matrix" values="0 0 0 0 0 0 0 0 0 0 0 0 0 0 0 0 0 0 127 0" result="hardAlpha"></feColorMatrix>
<feOffset dy="2"></feOffset>
<feGaussianBlur stdDeviation="2"></feGaussianBlur>
<feComposite in2="hardAlpha" operator="out"></feComposite>
<feColorMatrix type="matrix" values="0 0 0 0 0 0 0 0 0 0 0 0 0 0 0 0 0 0 0.2 0"></feColorMatrix>
<feBlend mode="normal" in2="BackgroundImageFix" result="effect1_dropShadow_591_23683"></feBlend>
<feBlend mode="normal" in="SourceGraphic" in2="effect1_dropShadow_591_23683" result="shape"></feBlend>
</filter>
<filter id="filter15_d_591_23683" x="400.999" y="183" width="49.5692" height="32" filterUnits="userSpaceOnUse" color-interpolation-filters="sRGB">
<feFlood flood-opacity="0" result="BackgroundImageFix"></feFlood>
<feColorMatrix in="SourceAlpha" type="matrix" values="0 0 0 0 0 0 0 0 0 0 0 0 0 0 0 0 0 0 127 0" result="hardAlpha"></feColorMatrix>
<feOffset dy="2"></feOffset>
<feGaussianBlur stdDeviation="2"></feGaussianBlur>
<feComposite in2="hardAlpha" operator="out"></feComposite>
<feColorMatrix type="matrix" values="0 0 0 0 0 0 0 0 0 0 0 0 0 0 0 0 0 0 0.2 0"></feColorMatrix>
<feBlend mode="normal" in2="BackgroundImageFix" result="effect1_dropShadow_591_23683"></feBlend>
<feBlend mode="normal" in="SourceGraphic" in2="effect1_dropShadow_591_23683" result="shape"></feBlend>
</filter>
<filter id="filter16_d_591_23683" x="131.394" y="45.929" width="336.918" height="212.199" filterUnits="userSpaceOnUse" color-interpolation-filters="sRGB">
<feFlood flood-opacity="0" result="BackgroundImageFix"></feFlood>
<feColorMatrix in="SourceAlpha" type="matrix" values="0 0 0 0 0 0 0 0 0 0 0 0 0 0 0 0 0 0 127 0" result="hardAlpha"></feColorMatrix>
<feOffset dy="20"></feOffset>
<feGaussianBlur stdDeviation="7.5"></feGaussianBlur>
<feComposite in2="hardAlpha" operator="out"></feComposite>
<feColorMatrix type="matrix" values="0 0 0 0 0 0 0 0 0 0 0 0 0 0 0 0 0 0 0.1 0"></feColorMatrix>
<feBlend mode="normal" in2="BackgroundImageFix" result="effect1_dropShadow_591_23683"></feBlend>
<feBlend mode="normal" in="SourceGraphic" in2="effect1_dropShadow_591_23683" result="shape"></feBlend>
</filter>
<filter id="filter17_d_591_23683" x="184.998" y="96" width="103.138" height="68" filterUnits="userSpaceOnUse" color-interpolation-filters="sRGB">
<feFlood flood-opacity="0" result="BackgroundImageFix"></feFlood>
<feColorMatrix in="SourceAlpha" type="matrix" values="0 0 0 0 0 0 0 0 0 0 0 0 0 0 0 0 0 0 127 0" result="hardAlpha"></feColorMatrix>
<feOffset dy="5"></feOffset>
<feGaussianBlur stdDeviation="5"></feGaussianBlur>
<feComposite in2="hardAlpha" operator="out"></feComposite>
<feColorMatrix type="matrix" values="0 0 0 0 0 0 0 0 0 0 0 0 0 0 0 0 0 0 0.2 0"></feColorMatrix>
<feBlend mode="normal" in2="BackgroundImageFix" result="effect1_dropShadow_591_23683"></feBlend>
<feBlend mode="normal" in="SourceGraphic" in2="effect1_dropShadow_591_23683" result="shape"></feBlend>
</filter>
<filter id="filter18_d_591_23683" x="312.571" y="96" width="103.138" height="68" filterUnits="userSpaceOnUse" color-interpolation-filters="sRGB">
<feFlood flood-opacity="0" result="BackgroundImageFix"></feFlood>
<feColorMatrix in="SourceAlpha" type="matrix" values="0 0 0 0 0 0 0 0 0 0 0 0 0 0 0 0 0 0 127 0" result="hardAlpha"></feColorMatrix>
<feOffset dy="5"></feOffset>
<feGaussianBlur stdDeviation="5"></feGaussianBlur>
<feComposite in2="hardAlpha" operator="out"></feComposite>
<feColorMatrix type="matrix" values="0 0 0 0 0 0 0 0 0 0 0 0 0 0 0 0 0 0 0.2 0"></feColorMatrix>
<feBlend mode="normal" in2="BackgroundImageFix" result="effect1_dropShadow_591_23683"></feBlend>
<feBlend mode="normal" in="SourceGraphic" in2="effect1_dropShadow_591_23683" result="shape"></feBlend>
</filter>
<filter id="filter19_d_591_23683" x="234.998" y="125" width="130.851" height="84" filterUnits="userSpaceOnUse" color-interpolation-filters="sRGB">
<feFlood flood-opacity="0" result="BackgroundImageFix"></feFlood>
<feColorMatrix in="SourceAlpha" type="matrix" values="0 0 0 0 0 0 0 0 0 0 0 0 0 0 0 0 0 0 127 0" result="hardAlpha"></feColorMatrix>
<feOffset dy="5"></feOffset>
<feGaussianBlur stdDeviation="5"></feGaussianBlur>
<feComposite in2="hardAlpha" operator="out"></feComposite>
<feColorMatrix type="matrix" values="0 0 0 0 0 0 0 0 0 0 0 0 0 0 0 0 0 0 0.2 0"></feColorMatrix>
<feBlend mode="normal" in2="BackgroundImageFix" result="effect1_dropShadow_591_23683"></feBlend>
<feBlend mode="normal" in="SourceGraphic" in2="effect1_dropShadow_591_23683" result="shape"></feBlend>
</filter>
<radialGradient id="paint0_radial_591_23683" cx="0" cy="0" r="1" gradientTransform="matrix(-86.6025 50 -86.6025 -50 299.998 121)" gradientUnits="userSpaceOnUse">
<stop stop-color="#B7500C"></stop>
<stop offset="1" stop-color="white" stop-opacity="0"></stop>
</radialGradient>
<linearGradient id="paint1_linear_591_23683" x1="135.861" y1="166.094" x2="138.988" y2="43.2743" gradientUnits="userSpaceOnUse">
<stop stop-color="#B7500C" stop-opacity="0.2"></stop>
<stop offset="0.5" stop-color="#B7500C"></stop>
<stop offset="1" stop-color="#B7500C" stop-opacity="0.2"></stop>
</linearGradient>
<clipPath id="clip0_591_23683">
<rect width="24" height="24" rx="4" transform="matrix(0.866025 -0.5 0.866025 0.5 194.998 220)" fill="white"></rect>
</clipPath>
<clipPath id="clip1_591_23683">
<rect width="24" height="24" rx="4" transform="matrix(0.866025 0.5 -0.866025 0.5 133.784 162)" fill="white"></rect>
</clipPath>
<clipPath id="clip2_591_23683">
<rect width="24" height="24" rx="4" transform="matrix(0.866025 -0.5 0.866025 0.5 153.998 197)" fill="white"></rect>
</clipPath>
<clipPath id="clip3_591_23683">
<rect width="24" height="24" rx="4" transform="matrix(0.866025 -0.5 0.866025 0.5 193.998 266)" fill="white"></rect>
</clipPath>
<clipPath id="clip4_591_23683">
<rect width="24" height="24" rx="4" transform="matrix(0.866025 -0.5 0.866025 0.5 235.998 243)" fill="white"></rect>
</clipPath>
<clipPath id="clip5_591_23683">
<rect width="24" height="24" rx="4" transform="matrix(0.866025 -0.5 0.866025 0.5 446.784 174)" fill="white"></rect>
</clipPath>
<clipPath id="clip6_591_23683">
<rect width="24" height="24" rx="4" transform="matrix(0.866025 0.5 -0.866025 0.5 383.785 209)" fill="white"></rect>
</clipPath>
<clipPath id="clip7_591_23683">
<rect width="24" height="24" rx="4" transform="matrix(0.866025 -0.5 0.866025 0.5 403.999 244)" fill="white"></rect>
</clipPath>
<clipPath id="clip8_591_23683">
<rect width="24" height="24" rx="4" transform="matrix(0.866025 -0.5 0.866025 0.5 445.784 220)" fill="white"></rect>
</clipPath>
<clipPath id="clip9_591_23683">
<rect width="24" height="24" rx="4" transform="matrix(0.866025 -0.5 0.866025 0.5 487.784 197)" fill="white"></rect>
</clipPath>
</defs>
</svg>
